<mxfile host="app.diagrams.net" modified="2024-07-02T07:49:41.500Z" agent="Mozilla/5.0 (Windows NT 10.0; Win64; x64) AppleWebKit/537.36 (KHTML, like Gecko) Chrome/126.0.0.0 Safari/537.36" etag="5C6itNWSZt1IxceNARhq" version="24.6.4" type="device">
  <diagram name="Halaman-1" id="zG11E14rg-O_UyG3sB_A">
    <mxGraphModel dx="2327" dy="796" grid="1" gridSize="10" guides="1" tooltips="1" connect="1" arrows="1" fold="1" page="1" pageScale="1" pageWidth="827" pageHeight="1169" math="0" shadow="0">
      <root>
        <mxCell id="0" />
        <mxCell id="1" parent="0" />
        <mxCell id="jXUVD6N27xSSBUn95qPa-1" value="MAHASISWA&lt;span style=&quot;color: rgba(0, 0, 0, 0); font-family: monospace; font-size: 0px; text-align: start; text-wrap: nowrap;&quot;&gt;%3CmxGraphModel%3E%3Croot%3E%3CmxCell%20id%3D%220%22%2F%3E%3CmxCell%20id%3D%221%22%20parent%3D%220%22%2F%3E%3CmxCell%20id%3D%222%22%20value%3D%22%22%20style%3D%22rounded%3D0%3BwhiteSpace%3Dwrap%3Bhtml%3D1%3B%22%20vertex%3D%221%22%20parent%3D%221%22%3E%3CmxGeometry%20x%3D%22210%22%20y%3D%22130%22%20width%3D%22120%22%20height%3D%2260%22%20as%3D%22geometry%22%2F%3E%3C%2FmxCell%3E%3C%2Froot%3E%3C%2FmxGraphModel%3E&lt;/span&gt;&lt;span style=&quot;color: rgba(0, 0, 0, 0); font-family: monospace; font-size: 0px; text-align: start; text-wrap: nowrap;&quot;&gt;%3CmxGraphModel%3E%3Croot%3E%3CmxCell%20id%3D%220%22%2F%3E%3CmxCell%20id%3D%221%22%20parent%3D%220%22%2F%3E%3CmxCell%20id%3D%222%22%20value%3D%22%22%20style%3D%22rounded%3D0%3BwhiteSpace%3Dwrap%3Bhtml%3D1%3B%22%20vertex%3D%221%22%20parent%3D%221%22%3E%3CmxGeometry%20x%3D%22210%22%20y%3D%22130%22%20width%3D%22120%22%20height%3D%2260%22%20as%3D%22geometry%22%2F%3E%3C%2FmxCell%3E%3C%2Froot%3E%3C%2FmxGraphModel%3E&lt;/span&gt;" style="rounded=0;whiteSpace=wrap;html=1;" vertex="1" parent="1">
          <mxGeometry x="10" y="30" width="120" height="60" as="geometry" />
        </mxCell>
        <mxCell id="jXUVD6N27xSSBUn95qPa-2" value="matakuliah" style="rounded=0;whiteSpace=wrap;html=1;" vertex="1" parent="1">
          <mxGeometry x="140" y="30" width="120" height="60" as="geometry" />
        </mxCell>
        <mxCell id="jXUVD6N27xSSBUn95qPa-3" value="dosen" style="rounded=0;whiteSpace=wrap;html=1;" vertex="1" parent="1">
          <mxGeometry x="270" y="30" width="120" height="60" as="geometry" />
        </mxCell>
        <mxCell id="jXUVD6N27xSSBUn95qPa-4" value="jurusan" style="rounded=0;whiteSpace=wrap;html=1;" vertex="1" parent="1">
          <mxGeometry x="400" y="30" width="120" height="60" as="geometry" />
        </mxCell>
        <mxCell id="jXUVD6N27xSSBUn95qPa-5" value="jadwal" style="rounded=0;whiteSpace=wrap;html=1;" vertex="1" parent="1">
          <mxGeometry x="530" y="30" width="120" height="60" as="geometry" />
        </mxCell>
        <mxCell id="jXUVD6N27xSSBUn95qPa-46" style="edgeStyle=orthogonalEdgeStyle;rounded=0;orthogonalLoop=1;jettySize=auto;html=1;entryX=0.5;entryY=0;entryDx=0;entryDy=0;" edge="1" parent="1" source="jXUVD6N27xSSBUn95qPa-6" target="jXUVD6N27xSSBUn95qPa-44">
          <mxGeometry relative="1" as="geometry">
            <Array as="points">
              <mxPoint x="730" y="120" />
              <mxPoint x="-20" y="120" />
              <mxPoint x="-20" y="240" />
              <mxPoint x="200" y="240" />
            </Array>
          </mxGeometry>
        </mxCell>
        <mxCell id="jXUVD6N27xSSBUn95qPa-6" value="id _mahasiswa" style="rounded=0;whiteSpace=wrap;html=1;" vertex="1" parent="1">
          <mxGeometry x="670" y="30" width="120" height="60" as="geometry" />
        </mxCell>
        <mxCell id="jXUVD6N27xSSBUn95qPa-7" value="MATAKULIAH" style="rounded=0;whiteSpace=wrap;html=1;" vertex="1" parent="1">
          <mxGeometry x="10" y="160" width="120" height="60" as="geometry" />
        </mxCell>
        <mxCell id="jXUVD6N27xSSBUn95qPa-8" value="atribut" style="rounded=0;whiteSpace=wrap;html=1;" vertex="1" parent="1">
          <mxGeometry x="140" y="160" width="120" height="60" as="geometry" />
        </mxCell>
        <mxCell id="jXUVD6N27xSSBUn95qPa-9" value="id _mahasiswa" style="rounded=0;whiteSpace=wrap;html=1;" vertex="1" parent="1">
          <mxGeometry x="270" y="160" width="120" height="60" as="geometry" />
        </mxCell>
        <mxCell id="jXUVD6N27xSSBUn95qPa-10" value="id _ jadwal" style="rounded=0;whiteSpace=wrap;html=1;" vertex="1" parent="1">
          <mxGeometry x="400" y="160" width="120" height="60" as="geometry" />
        </mxCell>
        <mxCell id="jXUVD6N27xSSBUn95qPa-11" value="sks" style="rounded=0;whiteSpace=wrap;html=1;" vertex="1" parent="1">
          <mxGeometry x="540" y="160" width="120" height="60" as="geometry" />
        </mxCell>
        <mxCell id="jXUVD6N27xSSBUn95qPa-40" style="edgeStyle=orthogonalEdgeStyle;rounded=0;orthogonalLoop=1;jettySize=auto;html=1;" edge="1" parent="1" source="jXUVD6N27xSSBUn95qPa-13" target="jXUVD6N27xSSBUn95qPa-37">
          <mxGeometry relative="1" as="geometry">
            <Array as="points">
              <mxPoint x="730" y="340" />
              <mxPoint x="210" y="340" />
            </Array>
          </mxGeometry>
        </mxCell>
        <mxCell id="jXUVD6N27xSSBUn95qPa-13" value="id _ matkkul" style="rounded=0;whiteSpace=wrap;html=1;" vertex="1" parent="1">
          <mxGeometry x="670" y="160" width="120" height="60" as="geometry" />
        </mxCell>
        <mxCell id="jXUVD6N27xSSBUn95qPa-14" value="JADWAL" style="rounded=0;whiteSpace=wrap;html=1;" vertex="1" parent="1">
          <mxGeometry x="10" y="452" width="120" height="60" as="geometry" />
        </mxCell>
        <mxCell id="jXUVD6N27xSSBUn95qPa-15" value="ruangan" style="rounded=0;whiteSpace=wrap;html=1;" vertex="1" parent="1">
          <mxGeometry x="140" y="452" width="120" height="60" as="geometry" />
        </mxCell>
        <mxCell id="jXUVD6N27xSSBUn95qPa-16" value="tanggal" style="rounded=0;whiteSpace=wrap;html=1;" vertex="1" parent="1">
          <mxGeometry x="280" y="452" width="120" height="60" as="geometry" />
        </mxCell>
        <mxCell id="jXUVD6N27xSSBUn95qPa-41" style="edgeStyle=orthogonalEdgeStyle;rounded=0;orthogonalLoop=1;jettySize=auto;html=1;entryX=1;entryY=0.5;entryDx=0;entryDy=0;" edge="1" parent="1" source="jXUVD6N27xSSBUn95qPa-17" target="jXUVD6N27xSSBUn95qPa-38">
          <mxGeometry relative="1" as="geometry">
            <Array as="points">
              <mxPoint x="470" y="382" />
            </Array>
          </mxGeometry>
        </mxCell>
        <mxCell id="jXUVD6N27xSSBUn95qPa-17" value="id _ tanggal" style="rounded=0;whiteSpace=wrap;html=1;" vertex="1" parent="1">
          <mxGeometry x="414" y="452" width="120" height="60" as="geometry" />
        </mxCell>
        <mxCell id="jXUVD6N27xSSBUn95qPa-18" value="DOSEN" style="rounded=0;whiteSpace=wrap;html=1;" vertex="1" parent="1">
          <mxGeometry x="10" y="552" width="120" height="60" as="geometry" />
        </mxCell>
        <mxCell id="jXUVD6N27xSSBUn95qPa-19" value="no _ tlpon" style="rounded=0;whiteSpace=wrap;html=1;" vertex="1" parent="1">
          <mxGeometry x="150" y="552" width="120" height="60" as="geometry" />
        </mxCell>
        <mxCell id="jXUVD6N27xSSBUn95qPa-20" value="nama dosen" style="rounded=0;whiteSpace=wrap;html=1;" vertex="1" parent="1">
          <mxGeometry x="290" y="552" width="120" height="60" as="geometry" />
        </mxCell>
        <mxCell id="jXUVD6N27xSSBUn95qPa-21" value="id _ dosen" style="rounded=0;whiteSpace=wrap;html=1;" vertex="1" parent="1">
          <mxGeometry x="430" y="552" width="120" height="60" as="geometry" />
        </mxCell>
        <mxCell id="jXUVD6N27xSSBUn95qPa-22" value="alamat" style="rounded=0;whiteSpace=wrap;html=1;" vertex="1" parent="1">
          <mxGeometry x="570" y="552" width="120" height="60" as="geometry" />
        </mxCell>
        <mxCell id="jXUVD6N27xSSBUn95qPa-23" value="JURUSAN" style="rounded=0;whiteSpace=wrap;html=1;" vertex="1" parent="1">
          <mxGeometry x="10" y="650" width="120" height="60" as="geometry" />
        </mxCell>
        <mxCell id="jXUVD6N27xSSBUn95qPa-24" value="nama jurusan" style="rounded=0;whiteSpace=wrap;html=1;" vertex="1" parent="1">
          <mxGeometry x="150" y="650" width="120" height="60" as="geometry" />
        </mxCell>
        <mxCell id="jXUVD6N27xSSBUn95qPa-49" style="edgeStyle=orthogonalEdgeStyle;rounded=0;orthogonalLoop=1;jettySize=auto;html=1;entryX=0.75;entryY=1;entryDx=0;entryDy=0;" edge="1" parent="1" source="jXUVD6N27xSSBUn95qPa-25" target="jXUVD6N27xSSBUn95qPa-6">
          <mxGeometry relative="1" as="geometry">
            <Array as="points">
              <mxPoint x="354" y="750" />
              <mxPoint x="970" y="750" />
              <mxPoint x="970" y="120" />
              <mxPoint x="760" y="120" />
            </Array>
          </mxGeometry>
        </mxCell>
        <mxCell id="jXUVD6N27xSSBUn95qPa-25" value="no jurusan" style="rounded=0;whiteSpace=wrap;html=1;" vertex="1" parent="1">
          <mxGeometry x="294" y="650" width="120" height="60" as="geometry" />
        </mxCell>
        <mxCell id="jXUVD6N27xSSBUn95qPa-26" value="id _ matkul" style="rounded=0;whiteSpace=wrap;html=1;" vertex="1" parent="1">
          <mxGeometry x="440" y="650" width="120" height="60" as="geometry" />
        </mxCell>
        <mxCell id="jXUVD6N27xSSBUn95qPa-27" value="sks" style="rounded=0;whiteSpace=wrap;html=1;" vertex="1" parent="1">
          <mxGeometry x="580" y="650" width="120" height="60" as="geometry" />
        </mxCell>
        <mxCell id="jXUVD6N27xSSBUn95qPa-33" value="KRS" style="rounded=0;whiteSpace=wrap;html=1;" vertex="1" parent="1">
          <mxGeometry x="10" y="261" width="120" height="60" as="geometry" />
        </mxCell>
        <mxCell id="jXUVD6N27xSSBUn95qPa-34" value="tgl _ krs" style="rounded=0;whiteSpace=wrap;html=1;" vertex="1" parent="1">
          <mxGeometry x="400" y="261" width="120" height="60" as="geometry" />
        </mxCell>
        <mxCell id="jXUVD6N27xSSBUn95qPa-35" value="total sks" style="rounded=0;whiteSpace=wrap;html=1;" vertex="1" parent="1">
          <mxGeometry x="540" y="261" width="120" height="60" as="geometry" />
        </mxCell>
        <mxCell id="jXUVD6N27xSSBUn95qPa-36" value="MEMPUNYAI" style="rounded=0;whiteSpace=wrap;html=1;" vertex="1" parent="1">
          <mxGeometry x="10" y="352" width="120" height="60" as="geometry" />
        </mxCell>
        <mxCell id="jXUVD6N27xSSBUn95qPa-37" value="id _ matkul" style="rounded=0;whiteSpace=wrap;html=1;" vertex="1" parent="1">
          <mxGeometry x="150" y="352" width="120" height="60" as="geometry" />
        </mxCell>
        <mxCell id="jXUVD6N27xSSBUn95qPa-38" value="id _ tanggal" style="rounded=0;whiteSpace=wrap;html=1;" vertex="1" parent="1">
          <mxGeometry x="280" y="352" width="120" height="60" as="geometry" />
        </mxCell>
        <mxCell id="jXUVD6N27xSSBUn95qPa-45" style="edgeStyle=orthogonalEdgeStyle;rounded=0;orthogonalLoop=1;jettySize=auto;html=1;entryX=0.25;entryY=1;entryDx=0;entryDy=0;" edge="1" parent="1" source="jXUVD6N27xSSBUn95qPa-43" target="jXUVD6N27xSSBUn95qPa-13">
          <mxGeometry relative="1" as="geometry">
            <Array as="points">
              <mxPoint x="330" y="240" />
              <mxPoint x="700" y="240" />
            </Array>
          </mxGeometry>
        </mxCell>
        <mxCell id="jXUVD6N27xSSBUn95qPa-43" value="id _ matkul" style="rounded=0;whiteSpace=wrap;html=1;" vertex="1" parent="1">
          <mxGeometry x="270" y="260" width="120" height="60" as="geometry" />
        </mxCell>
        <mxCell id="jXUVD6N27xSSBUn95qPa-44" value="id _ mahasiswa" style="rounded=0;whiteSpace=wrap;html=1;" vertex="1" parent="1">
          <mxGeometry x="140" y="260" width="120" height="60" as="geometry" />
        </mxCell>
        <mxCell id="jXUVD6N27xSSBUn95qPa-51" style="edgeStyle=orthogonalEdgeStyle;rounded=0;orthogonalLoop=1;jettySize=auto;html=1;entryX=1;entryY=0.5;entryDx=0;entryDy=0;" edge="1" parent="1" source="jXUVD6N27xSSBUn95qPa-50" target="jXUVD6N27xSSBUn95qPa-6">
          <mxGeometry relative="1" as="geometry">
            <Array as="points">
              <mxPoint x="890" y="580" />
              <mxPoint x="890" y="60" />
            </Array>
          </mxGeometry>
        </mxCell>
        <mxCell id="jXUVD6N27xSSBUn95qPa-50" value="id _ mahasiswa" style="rounded=0;whiteSpace=wrap;html=1;" vertex="1" parent="1">
          <mxGeometry x="827" y="555" width="120" height="60" as="geometry" />
        </mxCell>
        <mxCell id="jXUVD6N27xSSBUn95qPa-53" style="edgeStyle=orthogonalEdgeStyle;rounded=0;orthogonalLoop=1;jettySize=auto;html=1;entryX=0.75;entryY=1;entryDx=0;entryDy=0;" edge="1" parent="1" source="jXUVD6N27xSSBUn95qPa-52" target="jXUVD6N27xSSBUn95qPa-13">
          <mxGeometry relative="1" as="geometry" />
        </mxCell>
        <mxCell id="jXUVD6N27xSSBUn95qPa-52" value="id _ matkul" style="rounded=0;whiteSpace=wrap;html=1;" vertex="1" parent="1">
          <mxGeometry x="700" y="552" width="120" height="60" as="geometry" />
        </mxCell>
      </root>
    </mxGraphModel>
  </diagram>
</mxfile>
